<?xml version="1.0" encoding="UTF-8"?>
<svg width="52px" height="35px" viewBox="0 0 52 35" version="1.1" xmlns="http://www.w3.org/2000/svg" xmlns:xlink="http://www.w3.org/1999/xlink">
    <!-- Generator: Sketch 49.3 (51167) - http://www.bohemiancoding.com/sketch -->
    <title>logo-NPO3-2018</title>
    <desc>Created with Sketch.</desc>
    <defs></defs>
    <g id="Page-1" stroke="none" stroke-width="1" fill="none" fill-rule="evenodd">
        <g id="logo-NPO3" fill="#FFFFFF">
            <path d="M30.89,21.9 L29.4757864,21.9 L32.0657864,19.31 L33.4972408,19.31 C33.4560488,19.3477892 33.4136251,19.384477 33.37,19.42 L30.89,21.9 Z M27.2236269,25.5663731 L19.42,33.37 C18.8787772,34.0346655 18.0671478,34.4204445 17.21,34.4204445 C16.3528522,34.4204445 15.5412228,34.0346655 15,33.37 L1.05,19.42 C0.38533451,18.8787772 -0.000444499328,18.0671478 -0.000444499328,17.21 C-0.000444499328,16.3528522 0.38533451,15.5412228 1.05,15 L15,1.05 C15.5412228,0.38533451 16.3528522,-0.000444499328 17.21,-0.000444499328 C18.0671478,-0.000444499328 18.8787772,0.38533451 19.42,1.05 L27.2696585,8.89965849 C27.0984511,8.98271226 26.9387894,9.09160731 26.7967659,9.22433953 C26.688877,9.32517027 26.594025,9.43708566 26.5132667,9.55748026 L18.7128932,1.75710678 L18.6445614,1.68142298 C18.2932413,1.24997345 17.7663942,0.999555501 17.21,0.999555501 C16.6536058,0.999555501 16.1267587,1.24997345 15.7754386,1.68142298 L15.7071068,1.75710678 L1.75710678,15.7071068 L1.68142298,15.7754386 C1.24997345,16.1267587 0.999555501,16.6536058 0.999555501,17.21 C0.999555501,17.7663942 1.24997345,18.2932413 1.68142298,18.6445614 L1.75710678,18.7128932 L15.7071068,32.6628932 L15.7754386,32.738577 C16.1267587,33.1700265 16.6536058,33.4204445 17.21,33.4204445 C17.7663942,33.4204445 18.2932413,33.1700265 18.6445614,32.738577 L18.7128932,32.6628932 L26.5544102,24.8213762 C26.7111271,25.1227713 26.9423314,25.3792357 27.2236269,25.5663731 Z M31.09,12.72 L33.37,15 C33.487098,15.0953504 33.5955399,15.1990936 33.6947413,15.31 L32.2657864,15.31 L29.6757864,12.72 L31.09,12.72 Z" id="Combined-Shape" fill-rule="nonzero"></path>
            <g id="Group" transform="translate(2.000000, 2.000000)">
                <path d="M8.37,14.59 L6.16,12.34 C5.71836745,11.8247236 5.06694564,11.5374427 4.38864481,11.5588218 C3.71034399,11.5802009 3.07830659,11.9079347 2.67,12.45 L1.83,13.28 C1.2876116,13.6903136 0.959920828,14.3239427 0.938556657,15.0037118 C0.917192486,15.6834809 1.20444773,16.3364368 1.72,16.78 L4,19 C4.14427311,19.1635903 4.35187956,19.2573073 4.57,19.2573073 C4.78812044,19.2573073 4.99572689,19.1635903 5.14,19 C5.30315154,18.8575733 5.39677084,18.6515728 5.39677084,18.435 C5.39677084,18.2184272 5.30315154,18.0124267 5.14,17.87 L2.84,15.7 C2.42,15.28 2.43,14.88 2.9,14.41 L3.79,13.52 C4.27,13.04 4.67,13.03 5.09,13.45 L7.32,15.68 C7.51470975,15.8747098 7.79850539,15.9507526 8.06448385,15.8794839 C8.33046231,15.8082151 8.53821514,15.6004623 8.60948385,15.3344838 C8.68075257,15.0685054 8.60470975,14.7847097 8.41,14.59 L8.37,14.59 Z" id="Combined-Shape"></path>
                <path d="M12.62,8 C13.1315525,8.44168412 13.4163368,9.09072428 13.3949845,9.76623514 C13.3736321,10.441746 13.048426,11.0715049 12.51,11.48 L11.62,12.38 C11.4090439,12.6221663 11.1358458,12.801993 10.83,12.9 L11.62,13.67 C11.8417992,13.8608637 11.9381155,14.1598116 11.8694536,14.4442573 C11.8007916,14.728703 11.578703,14.9507916 11.2942573,15.0194536 C11.0098116,15.0881155 10.7108637,14.9917992 10.52,14.77 L7.12,11.38 C6.6047236,10.9383675 6.3174427,10.2869456 6.33882181,9.60864481 C6.36020092,8.93034399 6.68793469,8.29830659 7.23,7.89 L8.07,7.05 C8.47830659,6.50793469 9.11034399,6.18020092 9.78864481,6.15882181 C10.4669456,6.1374427 11.1183675,6.4247236 11.56,6.94 L12.62,8 Z M11.51,9.07 L10.51,8.07 C10.08,7.65 9.69,7.66 9.21,8.13 L8.32,9.03 C7.85,9.5 7.84,9.9 8.26,10.32 L9.26,11.32 C9.68,11.74 10.08,11.73 10.55,11.25 L11.44,10.36 C11.92,9.89 11.93,9.49 11.51,9.07 Z" id="Combined-Shape"></path>
                <path d="M17.93,2.7 L17.95,2.67 C18.4652764,3.11163255 18.7525573,3.76305436 18.7311782,4.44135519 C18.7097991,5.11965601 18.3820653,5.75169341 17.84,6.16 L17,7 C16.5952891,7.55197956 15.9604247,7.8886357 15.2764433,7.91396835 C14.5924618,7.93930099 13.9344335,7.65052977 13.49,7.13 L12.43,6.07 C11.9147236,5.62836745 11.6274427,4.97694564 11.6488218,4.29864481 C11.6702009,3.62034399 11.9979347,2.98830659 12.54,2.58 L13.38,1.74 C13.7883066,1.19793469 14.420344,0.870200915 15.0986448,0.848821806 C15.7769456,0.827442697 16.4283675,1.1147236 16.87,1.63 L17.93,2.7 Z M15.79,2.75 C15.37,2.32 14.97,2.34 14.5,2.81 L13.61,3.7 C13.13,4.17 13.12,4.57 13.55,4.99 L14.55,5.99 C14.98,6.42 15.37,6.4 15.85,5.93 L16.74,5.04 C17.21,4.57 17.22,4.17 16.8,3.75 L15.79,2.75 Z" id="Combined-Shape"></path>
            </g>
            <path d="M18,15 L31.96,1.05 C32.5012228,0.38533451 33.3128522,-0.000444499328 34.17,-0.000444499328 C35.0271478,-0.000444499328 35.8387772,0.38533451 36.38,1.05 L50.33,15 C50.9946655,15.5412228 51.3804445,16.3528522 51.3804445,17.21 C51.3804445,18.0671478 50.9946655,18.8787772 50.33,19.42 L36.42,33.37 C35.8787772,34.0346655 35.0671478,34.4204445 34.21,34.4204445 C33.3528522,34.4204445 32.5412228,34.0346655 32,33.37 L18,19.42 C17.3353345,18.8787772 16.9495555,18.0671478 16.9495555,17.21 C16.9495555,16.3528522 17.3353345,15.5412228 18,15 Z M42.15,10.72 C42.1528428,10.1530244 41.9149039,9.61148603 41.4953707,9.2300922 C41.0758375,8.84869837 40.5141399,8.6632946 39.95,8.72 L28.33,8.72 C27.7696473,8.65469754 27.2089308,8.83913872 26.7967659,9.22433953 C26.3846011,9.60954034 26.1627017,10.1565159 26.19,10.72 C26.1661832,11.2824724 26.389148,11.8273058 26.8004592,12.2117087 C27.2117703,12.5961116 27.7704215,12.7817605 28.33,12.72 L37.33,12.72 C37.64,12.72 37.82,12.88 37.82,13.25 L37.82,14.79 C37.82,15.15 37.64,15.31 37.33,15.31 L28.33,15.31 C27.2254305,15.31 26.33,16.2054305 26.33,17.31 C26.33,18.4145695 27.2254305,19.31 28.33,19.31 L37.33,19.31 C37.64,19.31 37.82,19.47 37.82,19.83 L37.82,21.38 C37.82,21.74 37.64,21.9 37.33,21.9 L28.33,21.9 C27.2254305,21.9 26.33,22.7954305 26.33,23.9 C26.33,25.0045695 27.2254305,25.9 28.33,25.9 L40,25.9 C40.5641399,25.9567054 41.1258375,25.7713016 41.5453707,25.3899078 C41.9649039,25.008514 42.2028428,24.4669756 42.2,23.9 L42.15,10.72 Z" id="Combined-Shape"></path>
        </g>
    </g>
</svg>